<svg xmlns="http://www.w3.org/2000/svg" viewBox="0 0 512 512" width="512" height="512">
  <defs>
    <linearGradient id="bgGradMaskable" x1="0%" y1="0%" x2="100%" y2="100%">
      <stop offset="0%" stop-color="#262626" />
      <stop offset="100%" stop-color="#121212" />
    </linearGradient>
    <linearGradient id="sparkleGradMaskable" x1="0%" y1="0%" x2="100%" y2="100%">
      <stop offset="0%" stop-color="#F59E0B" />
      <stop offset="100%" stop-color="#D97706" />
    </linearGradient>
  </defs>
  
  <!-- Full-bleed background for maskable adaptive icon -->
  <rect width="512" height="512" fill="url(#bgGradMaskable)" />
  
  <!-- Safe-zone centered Shirt Icon (scaled to fit well inside 80% circle safe zone) -->
  <g transform="translate(136, 136) scale(10)" fill="none" stroke="#FFFFFF" stroke-width="1.8" stroke-linecap="round" stroke-linejoin="round">
    <path d="M20.38 3.46 16 2a4 4 0 0 1-8 0L3.62 3.46a2 2 0 0 0-1.34 2.23l.58 3.47a1 1 0 0 0 .99.84H6v10c0 1.1.9 2 2 2h8a2 2 0 0 0 2-2V10h2.15a1 1 0 0 0 .99-.84l.58-3.47a2 2 0 0 0-1.34-2.23z" />
  </g>

  <!-- AI Sparkle accent -->
  <path d="M350 140 C350 156 362 168 378 168 C362 168 350 180 350 196 C350 180 338 168 322 168 C338 168 350 156 350 140 Z" fill="url(#sparkleGradMaskable)" />
</svg>
